<svg width="48" height="48" viewBox="0 0 48 48" fill="none" xmlns="http://www.w3.org/2000/svg">
<circle cx="24" cy="24" r="24" fill="#10B981"/>
<path d="M23.1125 24L27.5375 19.575C27.7703 19.3408 27.901 19.024 27.901 18.6937C27.901 18.3635 27.7703 18.0467 27.5375 17.8125C27.4213 17.6953 27.2831 17.6023 27.1307 17.5389C26.9784 17.4754 26.815 17.4427 26.65 17.4427C26.485 17.4427 26.3216 17.4754 26.1693 17.5389C26.017 17.6023 25.8787 17.6953 25.7625 17.8125L20.4625 23.1125C20.3454 23.2287 20.2524 23.367 20.1889 23.5193C20.1254 23.6716 20.0928 23.835 20.0928 24C20.0928 24.165 20.1254 24.3284 20.1889 24.4807C20.2524 24.633 20.3454 24.7713 20.4625 24.8875L25.7625 30.25C25.8793 30.3658 26.0178 30.4575 26.1701 30.5197C26.3224 30.5819 26.4855 30.6134 26.65 30.6125C26.8145 30.6134 26.9776 30.5819 27.1299 30.5197C27.2822 30.4575 27.4207 30.3658 27.5375 30.25C27.7703 30.0158 27.901 29.699 27.901 29.3687C27.901 29.0385 27.7703 28.7217 27.5375 28.4875L23.1125 24Z" fill="white"/>
</svg>
