<svg width="48" height="48" viewBox="0 0 48 48" fill="none" xmlns="http://www.w3.org/2000/svg">
<circle cx="24" cy="24" r="24" transform="matrix(-1 0 0 1 48 0)" fill="#10B981"/>
<path d="M24.8875 24L20.4625 19.575C20.2297 19.3408 20.099 19.024 20.099 18.6937C20.099 18.3635 20.2297 18.0467 20.4625 17.8125C20.5787 17.6953 20.7169 17.6023 20.8693 17.5389C21.0216 17.4754 21.185 17.4427 21.35 17.4427C21.515 17.4427 21.6784 17.4754 21.8307 17.5389C21.983 17.6023 22.1213 17.6953 22.2375 17.8125L27.5375 23.1125C27.6546 23.2287 27.7476 23.367 27.8111 23.5193C27.8746 23.6716 27.9072 23.835 27.9072 24C27.9072 24.165 27.8746 24.3284 27.8111 24.4807C27.7476 24.633 27.6546 24.7713 27.5375 24.8875L22.2375 30.25C22.1207 30.3658 21.9822 30.4575 21.8299 30.5197C21.6776 30.5819 21.5145 30.6134 21.35 30.6125C21.1855 30.6134 21.0224 30.5819 20.8701 30.5197C20.7178 30.4575 20.5793 30.3658 20.4625 30.25C20.2297 30.0158 20.099 29.699 20.099 29.3687C20.099 29.0385 20.2297 28.7217 20.4625 28.4875L24.8875 24Z" fill="white"/>
</svg>
